<svg aria-hidden="true" style="position: absolute; width: 0; height: 0; overflow: hidden;" version="1.1" xmlns="http://www.w3.org/2000/svg" xmlns:xlink="http://www.w3.org/1999/xlink">

    <defs>
        <symbol id="icon-clock" viewBox="0 0 14 14">
            <path stroke-linejoin="round" stroke-linecap="round" stroke-miterlimit="4" stroke-width="1.1667" d="M10.595 1.167h-7.19c-0.27 0-0.489 0.219-0.489 0.489 0 1.555 0.618 3.046 1.717 4.145l0.711 0.711c0.071 0.071 0.106 0.106 0.131 0.14 0.154 0.207 0.154 0.49 0 0.697-0.025 0.034-0.061 0.069-0.131 0.14l-0.711 0.711c-1.099 1.099-1.717 2.59-1.717 4.145 0 0.27 0.219 0.488 0.489 0.488h7.19c0.27 0 0.488-0.219 0.488-0.488 0-1.555-0.618-3.046-1.717-4.145l-0.711-0.711c-0.071-0.071-0.106-0.106-0.131-0.14-0.154-0.207-0.154-0.49 0-0.697 0.025-0.034 0.061-0.069 0.131-0.14l0.711-0.711c1.099-1.099 1.717-2.59 1.717-4.145 0-0.27-0.219-0.489-0.488-0.489z"></path>
        </symbol>
        <symbol id="icon-brush" viewBox="0 0 14 14">
            <path stroke-linejoin="round" stroke-linecap="round" stroke-miterlimit="4" stroke-width="1.1667" d="M7.454 8.75l-2.204-2.204"></path>
            <path stroke-linejoin="round" stroke-linecap="round" stroke-miterlimit="4" stroke-width="1.1667" d="M1.167 12.833c1.167 0 2.688 0.199 3.485-0.598s0.797-2.090 0-2.887c-0.797-0.797-2.090-0.797-2.887 0s0 2.319-0.598 3.485z"></path>
            <path stroke-linejoin="round" stroke-linecap="round" stroke-miterlimit="4" stroke-width="1.1667" d="M4.667 9.333c-0.287-0.287-0.43-0.43-0.511-0.58-0.194-0.36-0.186-0.795 0.022-1.148 0.087-0.147 0.235-0.285 0.533-0.56l5.756-5.33c0.507-0.469 1.294-0.454 1.783 0.034s0.504 1.276 0.034 1.783l-5.33 5.756c-0.275 0.297-0.413 0.446-0.56 0.533-0.352 0.208-0.788 0.216-1.148 0.022-0.15-0.081-0.293-0.224-0.58-0.511z"></path>
        </symbol>
        <symbol id="icon-message-chat" viewBox="0 0 14 14">
            <path stroke-linejoin="round" stroke-linecap="round" stroke-miterlimit="4" stroke-width="1.1667" d="M3.555 6.55c-0.036-0.234-0.055-0.473-0.055-0.717 0-2.577 2.103-4.667 4.697-4.667s4.697 2.089 4.697 4.667c0 0.582-0.107 1.14-0.303 1.653-0.041 0.107-0.061 0.16-0.070 0.202s-0.013 0.070-0.014 0.113c-0.001 0.043 0.005 0.090 0.016 0.184l0.235 1.908c0.025 0.207 0.038 0.31 0.004 0.385-0.030 0.066-0.084 0.118-0.15 0.147-0.076 0.033-0.179 0.018-0.385-0.013l-1.858-0.272c-0.097-0.014-0.146-0.021-0.19-0.021s-0.074 0.003-0.117 0.012c-0.043 0.009-0.098 0.030-0.209 0.071-0.515 0.193-1.074 0.299-1.657 0.299-0.244 0-0.484-0.018-0.717-0.054M4.452 12.833c1.73 0 3.132-1.436 3.132-3.208s-1.402-3.208-3.132-3.208c-1.73 0-3.132 1.436-3.132 3.208 0 0.356 0.057 0.699 0.161 1.019 0.044 0.135 0.066 0.203 0.074 0.249 0.008 0.048 0.009 0.075 0.006 0.124-0.003 0.047-0.014 0.1-0.038 0.205l-0.357 1.611 1.747-0.239c0.095-0.013 0.143-0.020 0.185-0.019 0.044 0 0.067 0.003 0.11 0.011 0.041 0.008 0.102 0.030 0.223 0.072 0.32 0.113 0.663 0.174 1.020 0.174z"></path>
        </symbol>
        <symbol id="icon-user" viewBox="0 0 14 14">
            <path stroke-linejoin="round" stroke-linecap="round" stroke-miterlimit="4" stroke-width="1.1667" d="M11.667 12.25c0-0.814 0-1.221-0.1-1.552-0.226-0.746-0.81-1.329-1.556-1.556-0.331-0.1-0.738-0.1-1.552-0.1h-2.917c-0.814 0-1.221 0-1.552 0.1-0.746 0.226-1.329 0.81-1.556 1.556-0.1 0.331-0.1 0.738-0.1 1.552"></path>
            <path stroke-linejoin="round" stroke-linecap="round" stroke-miterlimit="4" stroke-width="1.1667" d="M7 7c1.45 0 2.625-1.175 2.625-2.625s-1.175-2.625-2.625-2.625c-1.45 0-2.625 1.175-2.625 2.625s1.175 2.625 2.625 2.625z"></path>
        </symbol>
        <symbol id="icon-arrow-narrow-right1" viewBox="0 0 14 14">
            <path stroke-linejoin="round" stroke-linecap="round" stroke-miterlimit="4" stroke-width="1" d="M2.333 7h9.333"></path>
            <path stroke-linejoin="round" stroke-linecap="round" stroke-miterlimit="4" stroke-width="1" d="M8.166 3.5l3.5 3.5-3.5 3.5"></path>
        </symbol>
        <symbol id="icon-Icon-down" viewBox="0 0 14 14">
            <path stroke-linejoin="miter" stroke-linecap="butt" stroke-miterlimit="4" stroke-width="1.5556" d="M3.5 5.25l3.5 3.5 3.5-3.5"></path>
        </symbol>
        <symbol id="icon-Icon-upp" viewBox="0 0 14 14">
            <path stroke-linejoin="miter" stroke-linecap="butt" stroke-miterlimit="4" stroke-width="1.5556" d="M10.5 8.75l-3.5-3.5-3.5 3.5"></path>
        </symbol>
        <symbol id="icon-burger" viewBox="0 0 14 14">
            <path stroke-linejoin="round" stroke-linecap="round" stroke-miterlimit="4" stroke-width="1" d="M1.75 4.958h10.5M1.75 9.042h10.5"></path>
        </symbol>
        <symbol id="icon-x-close" viewBox="0 0 14 14">
            <path stroke-linejoin="round" stroke-linecap="round" stroke-miterlimit="4" stroke-width="1" d="M10.5 3.5l-7 7"></path>
            <path stroke-linejoin="round" stroke-linecap="round" stroke-miterlimit="4" stroke-width="1" d="M3.5 3.5l7 7"></path>
        </symbol>
        <symbol id="icon-left" viewBox="0 0 14 14">
            <path stroke-linejoin="round" stroke-linecap="round" stroke-miterlimit="4" stroke-width="0.875" d="M11.667 7h-9.333"></path>
            <path stroke-linejoin="round" stroke-linecap="round" stroke-miterlimit="4" stroke-width="0.875" d="M5.833 10.5l-3.5-3.5 3.5-3.5"></path>
        </symbol>
    </defs>
=======
<defs>
<symbol id="icon-clock" viewBox="0 0 14 14">
<path stroke-linejoin="round" stroke-linecap="round" stroke-miterlimit="4" stroke-width="1.1667" d="M10.595 1.167h-7.19c-0.27 0-0.489 0.219-0.489 0.489 0 1.555 0.618 3.046 1.717 4.145l0.711 0.711c0.071 0.071 0.106 0.106 0.131 0.14 0.154 0.207 0.154 0.49 0 0.697-0.025 0.034-0.061 0.069-0.131 0.14l-0.711 0.711c-1.099 1.099-1.717 2.59-1.717 4.145 0 0.27 0.219 0.488 0.489 0.488h7.19c0.27 0 0.488-0.219 0.488-0.488 0-1.555-0.618-3.046-1.717-4.145l-0.711-0.711c-0.071-0.071-0.106-0.106-0.131-0.14-0.154-0.207-0.154-0.49 0-0.697 0.025-0.034 0.061-0.069 0.131-0.14l0.711-0.711c1.099-1.099 1.717-2.59 1.717-4.145 0-0.27-0.219-0.489-0.488-0.489z"></path>
</symbol>
<symbol id="icon-brush" viewBox="0 0 14 14">
<path stroke-linejoin="round" stroke-linecap="round" stroke-miterlimit="4" stroke-width="1.1667" d="M7.454 8.75l-2.204-2.204"></path>
<path stroke-linejoin="round" stroke-linecap="round" stroke-miterlimit="4" stroke-width="1.1667" d="M1.167 12.833c1.167 0 2.688 0.199 3.485-0.598s0.797-2.090 0-2.887c-0.797-0.797-2.090-0.797-2.887 0s0 2.319-0.598 3.485z"></path>
<path stroke-linejoin="round" stroke-linecap="round" stroke-miterlimit="4" stroke-width="1.1667" d="M4.667 9.333c-0.287-0.287-0.43-0.43-0.511-0.58-0.194-0.36-0.186-0.795 0.022-1.148 0.087-0.147 0.235-0.285 0.533-0.56l5.756-5.33c0.507-0.469 1.294-0.454 1.783 0.034s0.504 1.276 0.034 1.783l-5.33 5.756c-0.275 0.297-0.413 0.446-0.56 0.533-0.352 0.208-0.788 0.216-1.148 0.022-0.15-0.081-0.293-0.224-0.58-0.511z"></path>
</symbol>
<symbol id="icon-message-chat" viewBox="0 0 14 14">
<path stroke-linejoin="round" stroke-linecap="round" stroke-miterlimit="4" stroke-width="1.1667" d="M3.555 6.55c-0.036-0.234-0.055-0.473-0.055-0.717 0-2.577 2.103-4.667 4.697-4.667s4.697 2.089 4.697 4.667c0 0.582-0.107 1.14-0.303 1.653-0.041 0.107-0.061 0.16-0.070 0.202s-0.013 0.070-0.014 0.113c-0.001 0.043 0.005 0.090 0.016 0.184l0.235 1.908c0.025 0.207 0.038 0.31 0.004 0.385-0.030 0.066-0.084 0.118-0.15 0.147-0.076 0.033-0.179 0.018-0.385-0.013l-1.858-0.272c-0.097-0.014-0.146-0.021-0.19-0.021s-0.074 0.003-0.117 0.012c-0.043 0.009-0.098 0.030-0.209 0.071-0.515 0.193-1.074 0.299-1.657 0.299-0.244 0-0.484-0.018-0.717-0.054M4.452 12.833c1.73 0 3.132-1.436 3.132-3.208s-1.402-3.208-3.132-3.208c-1.73 0-3.132 1.436-3.132 3.208 0 0.356 0.057 0.699 0.161 1.019 0.044 0.135 0.066 0.203 0.074 0.249 0.008 0.048 0.009 0.075 0.006 0.124-0.003 0.047-0.014 0.1-0.038 0.205l-0.357 1.611 1.747-0.239c0.095-0.013 0.143-0.020 0.185-0.019 0.044 0 0.067 0.003 0.11 0.011 0.041 0.008 0.102 0.030 0.223 0.072 0.32 0.113 0.663 0.174 1.020 0.174z"></path>
</symbol>
<symbol id="icon-user" viewBox="0 0 14 14">
<path stroke-linejoin="round" stroke-linecap="round" stroke-miterlimit="4" stroke-width="1.1667" d="M11.667 12.25c0-0.814 0-1.221-0.1-1.552-0.226-0.746-0.81-1.329-1.556-1.556-0.331-0.1-0.738-0.1-1.552-0.1h-2.917c-0.814 0-1.221 0-1.552 0.1-0.746 0.226-1.329 0.81-1.556 1.556-0.1 0.331-0.1 0.738-0.1 1.552"></path>
<path stroke-linejoin="round" stroke-linecap="round" stroke-miterlimit="4" stroke-width="1.1667" d="M7 7c1.45 0 2.625-1.175 2.625-2.625s-1.175-2.625-2.625-2.625c-1.45 0-2.625 1.175-2.625 2.625s1.175 2.625 2.625 2.625z"></path>
</symbol>

<symbol id="icon-arrow-narrow-right" viewBox="0 0 32 32">
<path stroke-linejoin="round" stroke-linecap="round" stroke-miterlimit="4" stroke-width="2" d="M5.333 16h21.333"></path>
<path stroke-linejoin="round" stroke-linecap="round" stroke-miterlimit="4" stroke-width="2" d="M18.666 8l8 8-8 8"></path>
</symbol>

<symbol id="icon-arrow-narrow-left" viewBox="0 0 32 32">
<path stroke-linejoin="round" stroke-linecap="round" stroke-miterlimit="4" stroke-width="2" d="M26.666 16h-21.333"></path>
<path stroke-linejoin="round" stroke-linecap="round" stroke-miterlimit="4" stroke-width="2" d="M13.334 24l-8-8 8-8"></path>
</symbol>

<symbol id="icon-Icon-down" viewBox="0 0 14 14">
<path stroke-linejoin="miter" stroke-linecap="butt" stroke-miterlimit="4" stroke-width="1.5556" d="M3.5 5.25l3.5 3.5 3.5-3.5"></path>
</symbol>

<symbol id="icon-Icon-upp" viewBox="0 0 14 14">
<path stroke-linejoin="miter" stroke-linecap="butt" stroke-miterlimit="4" stroke-width="1.5556" d="M10.5 8.75l-3.5-3.5-3.5 3.5"></path>
</symbol>
<symbol id="icon-burger" viewBox="0 0 14 14">
<path stroke-linejoin="round" stroke-linecap="round" stroke-miterlimit="4" stroke-width="1" d="M1.75 4.958h10.5M1.75 9.042h10.5"></path>
</symbol>
<symbol id="icon-x-close" viewBox="0 0 14 14">
<path stroke-linejoin="round" stroke-linecap="round" stroke-miterlimit="4" stroke-width="1" d="M10.5 3.5l-7 7"></path>
<path stroke-linejoin="round" stroke-linecap="round" stroke-miterlimit="4" stroke-width="1" d="M3.5 3.5l7 7"></path>
</symbol>
</defs>

</svg>